<svg width="80" height="80" viewBox="0 0 80 80" fill="none" xmlns="http://www.w3.org/2000/svg">
<g opacity="0.8">
<path d="M14.6314 62.1208L14.6227 62.189C13.0042 63.6321 12.3149 65.9547 13.0576 68.1357C14.0468 71.0445 17.2066 72.5999 20.1154 71.6106C21.4738 71.1477 22.5967 70.2429 23.1846 69.0489C24.8354 65.6939 26.2011 63.976 28.7194 62.6009C29.218 62.3288 29.807 62.217 30.3731 62.2656C30.9383 62.3144 31.5198 62.6012 31.6812 62.8105C32.1387 63.4021 32.0555 63.8446 31.7585 64.4997C31.4035 65.2839 29.1137 66.2141 29.4842 68.6381C29.7704 70.5094 31.6533 71.7046 33.5105 71.3385C33.9748 71.247 34.3992 71.0653 34.7677 70.8163L35.2911 69.7101C35.3514 68.84 35.7417 68.0361 36.3604 67.4523L35.2911 69.7101C35.2716 70.0045 35.2893 70.3061 35.3491 70.6096C35.7152 72.4669 37.5182 73.6761 39.3755 73.3101C40.4583 73.0966 41.3213 72.3947 41.7789 71.4779L41.7787 71.4771L42.0759 69.2837C42.2285 70.0581 42.1073 70.8225 41.7789 71.4779C42.3399 73.053 43.9821 74.0212 45.6712 73.6883C47.5284 73.3222 48.7377 71.5191 48.3716 69.6619C48.3394 69.4987 48.2964 69.341 48.2425 69.1888L47.8493 68.4047C48.0108 68.6447 48.1443 68.9065 48.2425 69.1888L48.6592 70.0185C50.8111 70.6375 53.1386 70.7675 55.4864 70.3048C59.5323 69.5072 62.8535 67.1038 64.9182 63.8863L64.8415 63.6227C64.7197 63.3894 64.6456 63.1347 64.6242 62.8747L64.8415 63.6227C64.9878 63.9024 65.2047 64.1511 65.4856 64.3394C66.3842 64.9421 67.6007 64.7023 68.2034 63.8037C68.7525 62.9839 68.6019 61.8997 67.889 61.2579C67.1975 61.2775 66.541 61.0336 66.0348 60.6059L67.889 61.2579C68.0417 61.2542 68.1961 61.2374 68.3511 61.2069C69.8466 60.9121 70.8194 59.4616 70.5246 57.9661C70.2298 56.4707 68.7794 55.4979 67.2839 55.7926L65.9965 56.4256C66.3503 56.1147 66.7884 55.8903 67.2839 55.7926L67.2811 55.7915C67.2017 52.181 65.7585 48.599 63.2368 46.0136C62.7742 45.5389 62.2753 45.1004 61.7474 44.7008C61.6951 44.6599 61.6412 44.6203 61.5866 44.5808C61.427 44.4631 61.2647 44.3485 61.0989 44.238C58.7875 42.6892 56.0048 41.8495 53.2202 41.9467L53.2074 41.9339C53.2133 41.9336 53.2184 41.9334 53.2243 41.9331C53.4435 41.2593 53.6925 40.4517 53.5462 39.7093C53.0863 37.3763 50.8217 35.8575 48.4887 36.3173C46.8988 36.6307 45.6871 37.7814 45.2219 39.2213L45.3323 39.8856C45.6723 40.5941 45.8252 41.3787 45.7098 42.159L45.3323 39.8856C44.9221 39.0324 44.2399 38.2908 43.4278 37.7981C41.5079 36.6358 38.8343 36.7946 37.1582 38.2874C36.5369 38.8403 36.0859 39.5658 35.8274 40.3556L36.2835 44.3989C35.5018 43.2218 35.387 41.6969 35.8274 40.3556L35.8202 40.2931C34.9491 39.7089 33.8556 39.4574 32.7457 39.6762C30.5258 40.1138 29.0808 42.2684 29.5184 44.4882C29.6424 45.1174 29.8323 45.7481 30.2662 46.1637C30.7377 46.6144 32.1083 47.3635 32.3789 47.7593C32.7382 48.285 32.7641 48.5893 32.4735 49.1042C32.199 49.5921 31.5119 49.7377 30.8976 49.7557C30.3892 49.7707 29.8979 49.5267 28.9808 49.1109C27.6706 48.5169 26.9347 47.8098 25.7101 45.9206C24.6166 44.2341 23.2492 43.0386 22.274 42.2934C21.0944 41.3934 19.5223 41.0445 17.9522 41.354C14.9383 41.9481 12.9762 44.8736 13.5703 47.8875C13.7881 48.9925 14.3188 49.9557 15.0525 50.7033L15.9921 51.0772C16.9034 51.2001 17.7603 51.5476 18.4918 52.0724L15.9921 51.0772C15.401 50.9968 14.7877 51.0112 14.17 51.133C11.156 51.7271 9.19397 54.6526 9.78806 57.6665C10.2694 60.1086 12.2817 61.8604 14.6314 62.1208ZM47.443 63.7925L47.3875 63.8052C45.8692 65.4842 44.3703 66.1248 42.4257 66.3155C42.4248 66.3157 42.424 66.3158 42.4232 66.316C39.7281 66.7765 37.142 65.0058 36.6102 62.3077C36.1836 60.1436 37.2063 58.0297 39.0053 56.9703L38.9963 56.955C37.8399 56.8429 36.9165 55.7509 36.8185 54.5924C36.7207 53.4348 37.3437 52.2893 38.2584 51.573C39.1739 50.8565 40.3294 50.3935 41.489 50.3098C42.3149 50.2501 43.1955 50.3595 43.9659 50.6619C45.1434 51.1235 46.2502 52.0822 47.0713 53.2643C46.5479 56.6834 46.6441 60.2454 47.443 63.7925ZM55.6619 54.3338C55.3851 52.9294 56.2993 51.5663 57.7037 51.2895C59.1081 51.0126 60.4712 51.9268 60.748 53.3312C61.0248 54.7357 60.1106 56.0987 58.7062 56.3756C57.3018 56.6524 55.9387 55.7382 55.6619 54.3338Z" fill="#D4D4D4"/>
<path d="M15.9936 51.0777L18.4933 52.0729C17.7617 51.5481 16.9049 51.2006 15.9936 51.0777Z" fill="#F3A2A9"/>
<path d="M35.29 69.7109L36.3594 67.4531C35.7407 68.037 35.3503 68.8409 35.29 69.7109Z" fill="#F3A2A9"/>
<path d="M42.913 65.9948C44.8576 65.8041 46.3565 65.1635 47.8749 63.4845L47.9303 63.4718C47.1314 59.9247 47.0352 56.3627 47.5586 52.9436C46.7376 51.7615 45.6307 50.8027 44.4532 50.3412C43.6828 50.0388 42.8023 49.9294 41.9763 49.9891C40.8167 50.0728 39.6612 50.5358 38.7457 51.2523C37.831 51.9686 37.208 53.1141 37.3058 54.2717C37.4038 55.4302 38.3272 56.5222 39.4836 56.6343L39.4926 56.6496C37.6936 57.709 36.6709 59.8229 37.0975 61.987C37.6293 64.685 40.2154 66.4558 42.9105 65.9953L42.913 65.9948Z" fill="#DBDBDB"/>
<path d="M35.8281 40.3555C35.3877 41.6967 35.5025 43.2217 36.2842 44.3988L35.8281 40.3555Z" fill="#F3A2A9"/>
<path d="M42.0781 69.2852L41.781 71.4785L41.7811 71.4793C42.1096 70.824 42.2308 70.0596 42.0781 69.2852Z" fill="#F3A2A9"/>
<path d="M47.8484 68.4047L48.2416 69.1887C48.1433 68.9064 48.0099 68.6447 47.8484 68.4047Z" fill="#F3A2A9"/>
<path d="M45.3323 39.8863L45.7097 42.1597C45.8252 41.3793 45.6722 40.5948 45.3323 39.8863Z" fill="#F3A2A9"/>
<path d="M53.2106 41.9328L53.223 41.9453C53.2246 41.9409 53.2262 41.9364 53.227 41.9321C53.2213 41.9324 53.2163 41.9325 53.2106 41.9328Z" fill="#F3A2A9"/>
<path d="M53.2245 41.9314C53.2237 41.9358 53.222 41.9404 53.2204 41.945C56.005 41.8478 58.7877 42.6875 61.0991 44.2363C58.7891 42.6864 56.0047 41.8376 53.2245 41.9314Z" fill="#F3A2A9"/>
<path d="M58.7095 56.3764C57.305 56.6533 55.942 55.7391 55.6652 54.3347C55.3883 52.9302 56.3025 51.5672 57.707 51.2903C59.1114 51.0135 60.4744 51.9276 60.7513 53.3321C61.0281 54.7366 60.114 56.0996 58.7095 56.3764Z" fill="#DBDBDB"/>
<path d="M64.6202 62.8765C64.6416 63.1365 64.7157 63.3912 64.8376 63.6246L64.6202 62.8765Z" fill="#F3A2A9"/>
<path d="M61.5866 44.5807C61.6413 44.6203 61.6952 44.66 61.7476 44.7008C61.6952 44.66 61.6413 44.6203 61.5866 44.5807Z" fill="#F3A2A9"/>
<path d="M67.8884 61.2568L66.0341 60.6048C66.5403 61.0325 67.1968 61.2764 67.8884 61.2568Z" fill="#F3A2A9"/>
<path d="M65.9939 56.426L67.2812 55.793C66.7858 55.8906 66.3477 56.1151 65.9939 56.426Z" fill="#F3A2A9"/>
<path d="M45.7061 42.1606C45.8216 41.3802 45.6686 40.5957 45.3287 39.8872C44.9185 39.034 44.2363 38.2924 43.4241 37.7997C41.5042 36.6373 38.8306 36.7962 37.1546 38.289C36.5332 38.8418 36.0822 39.5673 35.8237 40.3572C35.3833 41.6984 35.4981 43.2234 36.2798 44.4005" stroke="white" stroke-width="1.5" stroke-miterlimit="10" stroke-linecap="round"/>
<path d="M45.2206 39.2207C45.6858 37.7808 46.8976 36.63 48.4874 36.3167C50.8204 35.8568 53.085 37.3756 53.5449 39.7086C53.6912 40.451 53.4422 41.2586 53.223 41.9324C53.2222 41.9369 53.2206 41.9414 53.2189 41.946C56.0035 41.8488 58.7862 42.6885 61.0976 44.2373C61.2634 44.3478 61.4257 44.4624 61.5853 44.5801C61.6399 44.6196 61.6938 44.6593 61.7461 44.7001C62.274 45.0997 62.7729 45.5382 63.2355 46.0129C65.7572 48.5983 67.2005 52.1803 67.2798 55.7908" stroke="white" stroke-width="1.5" stroke-miterlimit="10" stroke-linecap="round"/>
<path d="M18.4883 52.072C17.7568 51.5472 16.9 51.1997 15.9886 51.0768C15.3975 50.9964 14.7842 51.0108 14.1665 51.1326C11.1526 51.7267 9.19052 54.6521 9.78462 57.6661C10.266 60.1082 12.2782 61.86 14.628 62.1204C15.1778 62.1816 15.7464 62.1607 16.3181 62.048C17.7267 61.7703 18.9046 60.9842 19.7008 59.9179" stroke="white" stroke-width="1.5" stroke-miterlimit="10" stroke-linecap="round"/>
<path d="M49.8125 44.7031C48.4606 47.378 47.5268 50.2669 47.0688 53.2658C46.5455 56.6849 46.6417 60.247 47.4406 63.7941C47.5792 64.411 47.74 65.0278 47.922 65.6439" stroke="white" stroke-width="1.5" stroke-miterlimit="10" stroke-linecap="round"/>
<path d="M48.6629 70.019C50.8148 70.6379 53.1423 70.768 55.4901 70.3052C59.536 69.5077 62.8572 67.1043 64.9219 63.8867" stroke="white" stroke-width="1.5" stroke-miterlimit="10" stroke-linecap="round"/>
<path d="M58.7095 56.3764C57.305 56.6533 55.942 55.7391 55.6652 54.3347C55.3883 52.9302 56.3025 51.5672 57.707 51.2903C59.1114 51.0135 60.4744 51.9276 60.7513 53.3321C61.0281 54.7366 60.114 56.0996 58.7095 56.3764Z" stroke="white" stroke-width="1.5" stroke-miterlimit="10" stroke-linecap="round"/>
<path d="M66.036 60.6046C66.5421 61.0324 67.1987 61.2762 67.8902 61.2567C68.0429 61.253 68.1973 61.2362 68.3523 61.2057C69.8478 60.9109 70.8206 59.4604 70.5258 57.9649C70.231 56.4695 68.7805 55.4966 67.2851 55.7914C66.7896 55.8891 66.3515 56.1135 65.9977 56.4244" stroke="white" stroke-width="1.5" stroke-miterlimit="10" stroke-linecap="round"/>
<path d="M64.6262 62.8757C64.6477 63.1357 64.7217 63.3904 64.8436 63.6238C64.9899 63.9034 65.2068 64.1521 65.4877 64.3405C66.3862 64.9431 67.6028 64.7033 68.2054 63.8048C68.7546 62.9849 68.6039 61.9008 67.8911 61.259" stroke="white" stroke-width="1.5" stroke-miterlimit="10" stroke-linecap="round"/>
<path d="M41.7824 71.476L41.7826 71.4768C42.3436 73.0519 43.9858 74.0201 45.6749 73.6872C47.5321 73.3211 48.7414 71.5181 48.3753 69.6608C48.3431 69.4976 48.3001 69.3399 48.2462 69.1877C48.148 68.9054 48.0145 68.6437 47.853 68.4036" stroke="white" stroke-width="1.5" stroke-miterlimit="10" stroke-linecap="round"/>
<path d="M36.3614 67.4535C35.7428 68.0373 35.3524 68.8412 35.2921 69.7113C35.2726 70.0057 35.2903 70.3073 35.3501 70.6108C35.7162 72.4681 37.5192 73.6773 39.3765 73.3113C40.4593 73.0978 41.3223 72.3959 41.7799 71.4791C42.1084 70.8237 42.2295 70.0593 42.0769 69.2849" stroke="white" stroke-width="1.5" stroke-miterlimit="10" stroke-linecap="round"/>
<path d="M42.4291 66.3138C42.4711 66.3064 42.5131 66.299 42.555 66.2907" stroke="white" stroke-width="1.5" stroke-miterlimit="10" stroke-linecap="round"/>
<path d="M40.5938 56.3672C40.0171 56.4809 39.4827 56.6885 39.0041 56.9711C37.2051 58.0305 36.1824 60.1445 36.609 62.3085C37.1408 65.0066 39.7269 66.7774 42.4221 66.3169" stroke="white" stroke-width="1.5" stroke-miterlimit="10" stroke-linecap="round"/>
<path d="M41.7591 66.3635C41.9879 66.3525 42.2098 66.3369 42.4263 66.3155C42.4271 66.3154 42.4279 66.3152 42.4287 66.315C44.3734 66.1243 45.8723 65.4837 47.3906 63.8047" stroke="white" stroke-width="1.5" stroke-miterlimit="10" stroke-linecap="round"/>
<path d="M47.0744 53.2647C46.2532 52.0818 45.1464 51.1231 43.9688 50.6615C43.1985 50.3591 42.3179 50.2497 41.4919 50.3094C40.3324 50.3931 39.1768 50.8561 38.2613 51.5726C37.3466 52.289 36.7236 53.4344 36.8214 54.592C36.9194 55.7505 37.8428 56.8425 38.9992 56.9546" stroke="white" stroke-width="1.5" stroke-miterlimit="10" stroke-linecap="round"/>
<path d="M46.7347 58.5982C46.7265 58.5001 46.6296 58.4365 46.5423 58.3915C45.3139 57.7627 43.8344 57.8575 42.5004 58.2107" stroke="white" stroke-width="1.5" stroke-miterlimit="10" stroke-linecap="round"/>
<path d="M46.975 61.3331C46.6951 61.6252 46.3312 61.8239 45.9566 61.977C44.8232 62.4399 43.533 62.5093 42.3564 62.1694" stroke="white" stroke-width="1.5" stroke-miterlimit="10" stroke-linecap="round"/>
<path d="M30.8281 52.6758C30.3424 53.1993 30.1333 53.9198 30.0025 54.6222C29.7284 56.0935 29.7318 57.6157 30.0088 59.0857C30.0752 59.4399 30.1581 59.7909 30.2563 60.138" stroke="white" stroke-width="1.5" stroke-miterlimit="10" stroke-linecap="round"/>
<path d="M30.1153 53.6662C28.4402 53.3564 26.9263 52.4728 25.5346 51.4909" stroke="white" stroke-width="1.5" stroke-miterlimit="10" stroke-linecap="round"/>
<path d="M29.742 56.2088C27.9156 56.3379 26.0753 56.2583 24.2666 55.9714" stroke="white" stroke-width="1.5" stroke-miterlimit="10" stroke-linecap="round"/>
<path d="M30.0393 59.0892C30.0287 59.087 30.019 59.0855 30.0084 59.0834C28.178 58.7556 26.206 59.3522 24.8663 60.6407" stroke="white" stroke-width="1.5" stroke-miterlimit="10" stroke-linecap="round"/>
<path d="M35.8186 40.2949C34.9475 39.7107 33.854 39.4592 32.744 39.678C30.5242 40.1156 29.0792 42.2702 29.5167 44.49C29.6408 45.1192 29.8307 45.7499 30.2646 46.1655C30.7361 46.6163 32.1067 47.3653 32.3773 47.7611C32.7366 48.2868 32.7624 48.5911 32.4719 49.106C32.1974 49.5939 31.5102 49.7396 30.8959 49.7575C30.3876 49.7725 29.8963 49.5285 28.9792 49.1127C27.669 48.5188 26.9331 47.8116 25.7085 45.9225C24.615 44.2359 23.2476 43.0405 22.2724 42.2953C21.0928 41.3952 19.5207 41.0463 17.9506 41.3558C14.9366 41.9499 12.9746 44.8754 13.5687 47.8893C13.7865 48.9943 14.3172 49.9575 15.0509 50.7052" stroke="white" stroke-width="1.5" stroke-miterlimit="10" stroke-linecap="round"/>
<path d="M14.6204 62.1872C13.0019 63.6303 12.3127 65.953 13.0553 68.134C14.0446 71.0427 17.2044 72.5981 20.1131 71.6089C21.4715 71.146 22.5945 70.2411 23.1824 69.0472C24.8331 65.6922 26.1989 63.9742 28.7171 62.5992C29.2157 62.3271 29.8047 62.2152 30.3708 62.2639C30.936 62.3127 31.5175 62.5994 31.679 62.8088C32.1365 63.4004 32.0532 63.8429 31.7563 64.498C31.4012 65.2821 29.1115 66.2124 29.4819 68.6364C29.7681 70.5077 31.651 71.7029 33.5083 71.3368C33.9726 71.2452 34.397 71.0636 34.7654 70.8145" stroke="white" stroke-width="1.5" stroke-miterlimit="10" stroke-linecap="round"/>
<path d="M57.9215 56.7478C57.226 58.7712 57.0082 63.0576 57.8962 64.9126M57.9215 56.7478C58.692 56.8244 60.3043 56.8965 60.589 56.5715C60.9449 56.1652 54.5942 55.6281 55.0005 55.984C55.3255 56.2687 57.0832 56.6118 57.9215 56.7478Z" stroke="white" stroke-linecap="round"/>
</g>
<path opacity="0.6" fill-rule="evenodd" clip-rule="evenodd" d="M41.5121 30.7366C46.9335 29.5819 51 24.7658 51 19C51 12.3726 45.6274 7 39 7C32.3726 7 27 12.3726 27 19C27 24.7658 31.0664 29.5819 36.4879 30.7366L39 34L41.5121 30.7366Z" fill="#BEBEBE"/>
<path opacity="0.6" d="M46.9047 18.215H43.1617V25.378H40.6537V18.215H37.2337V25.378H34.7257V18.215H31.0967V16.182H46.9047V18.215Z" fill="white"/>
</svg>
