<svg width="24" height="24" viewBox="0 0 24 24" fill="none" xmlns="http://www.w3.org/2000/svg">
<g clip-path="url(#clip0_6855_31719)">
<path d="M12 2.2002C12.4418 2.2002 12.7998 2.55817 12.7998 3V4.03906C16.5795 4.41422 19.5848 7.42052 19.96 11.2002H21C21.4418 11.2002 21.7998 11.5582 21.7998 12C21.7998 12.4418 21.4418 12.7998 21 12.7998H19.96C19.5848 16.5795 16.5795 19.5848 12.7998 19.96V21C12.7998 21.4418 12.4418 21.7998 12 21.7998C11.5582 21.7998 11.2002 21.4418 11.2002 21V19.96C7.42055 19.5848 4.41524 16.5795 4.04004 12.7998H3C2.55817 12.7998 2.2002 12.4418 2.2002 12C2.2002 11.5582 2.55817 11.2002 3 11.2002H4.04004C4.41524 7.42052 7.4205 4.41422 11.2002 4.03906V3C11.2002 2.55817 11.5582 2.2002 12 2.2002ZM12 5.59961C8.46538 5.59961 5.59961 8.46538 5.59961 12C5.59961 15.5346 8.46538 18.4004 12 18.4004C15.5346 18.4004 18.4004 15.5346 18.4004 12C18.4004 8.46538 15.5346 5.59961 12 5.59961ZM12 8C14.2091 8 16 9.79086 16 12C16 14.2091 14.2091 16 12 16C9.79086 16 8 14.2091 8 12C8 9.79086 9.79086 8 12 8ZM12 9.59961C10.6745 9.59961 9.59961 10.6745 9.59961 12C9.59961 13.3255 10.6745 14.4004 12 14.4004C13.3255 14.4004 14.4004 13.3255 14.4004 12C14.4004 10.6745 13.3255 9.59961 12 9.59961Z" fill="#5A5A5A"/>
</g>
<defs>
<clipPath id="clip0_6855_31719">
<rect width="24" height="24" fill="white"/>
</clipPath>
</defs>
</svg>
