<svg width="12" height="12" viewBox="0 0 12 12" fill="none" xmlns="http://www.w3.org/2000/svg">
<g clip-path="url(#clip0_6855_31715)">
<path d="M10.2637 1.22333C10.4095 1.17068 10.573 1.20753 10.6826 1.31708C10.7923 1.42674 10.829 1.59016 10.7764 1.73602L7.6543 10.3815C7.65053 10.392 7.64622 10.4027 7.6416 10.4128C7.58861 10.5283 7.50346 10.6264 7.39648 10.695C7.28957 10.7636 7.16511 10.8004 7.03809 10.8005C6.9109 10.8005 6.78574 10.7637 6.67871 10.695C6.57406 10.6278 6.49067 10.5319 6.4375 10.4196L4.81836 7.18134L1.58008 5.56219C1.46783 5.50904 1.37284 5.42558 1.30566 5.32098C1.23703 5.21404 1.20025 5.08966 1.2002 4.96259C1.2002 4.83541 1.23698 4.71025 1.30566 4.60321C1.37434 4.49639 1.47244 4.411 1.58789 4.35809C1.59774 4.3536 1.60798 4.35006 1.61816 4.34637L10.2637 1.22333Z" fill="#B7B7B7"/>
</g>
<defs>
<clipPath id="clip0_6855_31715">
<rect width="12" height="12" fill="white"/>
</clipPath>
</defs>
</svg>
