<svg width="32" height="40" viewBox="0 0 32 40" fill="none" xmlns="http://www.w3.org/2000/svg">
<ellipse opacity="0.5" cx="16" cy="34" rx="12" ry="6" fill="url(#paint0_radial_5008_12631)"/>
<path d="M18.3806 33.0384L26.6104 24.9977C28.7074 22.9489 30.1342 20.3396 30.7122 17.5006C31.2901 14.6616 30.9936 11.7189 29.8595 9.04402C28.7254 6.36905 26.8041 4.08111 24.3373 2.47068C21.8703 0.860179 18.9688 0 16 0C13.0311 0 10.1297 0.860179 7.66271 2.47068C5.19583 4.08111 3.27463 6.36905 2.14052 9.04402C1.00646 11.7189 0.709867 14.6616 1.28779 17.5006C1.86572 20.3396 3.29259 22.9489 5.38954 24.9977M18.3806 33.0384C17.7509 33.6529 16.8951 34 16.0009 34L18.3806 33.0384ZM16.0009 34C15.1068 34 14.251 33.6529 13.6213 33.0384L16.0009 34Z" fill="black"/>
<path d="M18.3806 33.0384L26.6104 24.9977C28.7074 22.9489 30.1342 20.3396 30.7122 17.5006C31.2901 14.6616 30.9936 11.7189 29.8595 9.04402C28.7254 6.36905 26.8041 4.08111 24.3373 2.47068C21.8703 0.860179 18.9688 0 16 0C13.0311 0 10.1297 0.860179 7.66271 2.47068C5.19583 4.08111 3.27463 6.36905 2.14052 9.04402C1.00646 11.7189 0.709867 14.6616 1.28779 17.5006C1.86572 20.3396 3.29259 22.9489 5.38954 24.9977L13.6213 33.0384C14.251 33.6529 15.1068 34 16.0009 34C16.8951 34 17.7509 33.6529 18.3806 33.0384Z" fill="black"/>
<path fill-rule="evenodd" clip-rule="evenodd" d="M17.9513 32.2096L25.9066 24.4056C25.9066 24.4056 25.9066 24.4056 25.9066 24.4056C27.863 22.4863 29.1931 20.0432 29.7318 17.3865C30.2704 14.73 29.9941 11.9762 28.9369 9.47252C27.8796 6.96866 26.0879 4.82547 23.7853 3.31619C21.4825 1.80678 18.7731 1 16 1C13.2269 1 10.5175 1.80678 8.21473 3.31619C5.91213 4.82547 4.1204 6.96866 3.06313 9.47252C2.00594 11.9762 1.72962 14.73 2.26823 17.3865C2.80686 20.0432 4.13693 22.4862 6.09333 24.4055C6.09337 24.4056 6.0934 24.4056 6.09344 24.4056L14.0506 32.2096C14.5648 32.7136 15.266 33 16.0009 33C16.7359 33 17.4371 32.7136 17.9513 32.2096ZM18.6512 32.9238C17.9481 33.6129 16.9948 34 16.0009 34C15.007 34 14.0538 33.6129 13.3506 32.9238L5.39313 25.1195C3.29542 23.0615 1.86689 20.4396 1.28817 17.5852C0.709455 14.7309 1.00655 11.7723 2.14189 9.08352C3.27722 6.39478 5.19981 4.09669 7.66653 2.47984C10.1333 0.862989 13.0333 0 16 0C18.9667 0 21.8668 0.862989 24.3335 2.47984C26.8002 4.09669 28.7228 6.39478 29.8581 9.08352C30.9935 11.7723 31.2905 14.7309 30.7118 17.5852C30.1331 20.4396 28.7046 23.0615 26.6069 25.1195L18.6512 32.9238Z" fill="#FF5C43"/>
<path d="M22.2537 15.9278L17.0942 21.3561C16.5028 21.9783 15.511 21.9783 14.9197 21.3561L9.76018 15.9278M9.76018 15.9278C9.34815 15.5019 9.02359 14.99 8.80696 14.4242C8.59033 13.8585 8.48631 13.2513 8.50144 12.6408C8.51658 12.0303 8.65055 11.4297 8.89492 10.8769C9.13929 10.3241 9.48876 9.83099 9.92133 9.4287C10.3539 9.02641 10.8602 8.72362 11.4083 8.5394C11.9565 8.35518 12.5346 8.29352 13.1062 8.3583C13.6779 8.42308 14.2308 8.6129 14.73 8.91581C15.2292 9.21872 15.664 9.62815 16.0069 10.1183C16.3514 9.6317 16.7867 9.22585 17.2855 8.92616C17.7844 8.62647 18.3361 8.43939 18.9062 8.37663C19.4763 8.31388 20.0524 8.37679 20.5985 8.56144C21.1447 8.74609 21.649 9.0485 22.0801 9.44974C22.5111 9.85098 22.8596 10.3424 23.1036 10.8933C23.3476 11.4442 23.482 12.0426 23.4983 12.6512C23.5146 13.2598 23.4125 13.8654 23.1983 14.4301C22.9842 14.9948 22.6626 15.5065 22.2537 15.9331" fill="#FF5C43"/>
<defs>
<radialGradient id="paint0_radial_5008_12631" cx="0" cy="0" r="1" gradientUnits="userSpaceOnUse" gradientTransform="translate(16 34) rotate(90) scale(6 12)">
<stop stop-color="#FF5C43"/>
<stop offset="1" stop-color="#FF5C43" stop-opacity="0"/>
</radialGradient>
</defs>
</svg>
