<svg width="24" height="24" viewBox="0 0 24 24" fill="none" xmlns="http://www.w3.org/2000/svg">
<circle cx="12" cy="12" r="11.5" fill="#232323" stroke="#969696"/>
<path d="M17.003 12.7421L13.0928 16.856C12.5015 17.4781 11.5096 17.4781 10.9183 16.856L7.00814 12.7421M7.00814 12.7421C6.67852 12.4013 6.41888 11.9918 6.24557 11.5392C6.07226 11.0867 5.98904 10.6009 6.00116 10.1125C6.01327 9.62404 6.12044 9.14358 6.31594 8.70133C6.51143 8.25908 6.79101 7.86462 7.13707 7.54279C7.48312 7.22096 7.88816 6.97872 8.32667 6.83135C8.76518 6.68397 9.22766 6.63465 9.685 6.68647C10.1423 6.7383 10.5846 6.89015 10.984 7.13248C11.3834 7.3748 11.7312 7.70235 12.0056 8.09448C12.2811 7.70519 12.6293 7.38051 13.0284 7.14076C13.4275 6.901 13.8689 6.75134 14.325 6.70114C14.781 6.65093 15.2419 6.70126 15.6788 6.84898C16.1157 6.9967 16.5192 7.23863 16.8641 7.55962C17.2089 7.88061 17.4877 8.27376 17.6829 8.71446C17.8781 9.15516 17.9856 9.63393 17.9987 10.1208C18.0117 10.6077 17.93 11.0921 17.7587 11.5439C17.5873 11.9957 17.3301 12.405 17.003 12.7463" fill="#969696"/>
</svg>
