<svg width="12" height="12" viewBox="0 0 12 12" fill="none" xmlns="http://www.w3.org/2000/svg">
<path d="M6.00049 1.60001C8.42027 1.6002 10.3998 3.40406 10.3999 5.62149C10.3999 7.84777 8.42031 9.65157 6.00049 9.65176C5.51649 9.65176 4.98801 9.60784 4.81201 9.59024L3.38623 10.3647C3.35101 10.391 3.28956 10.3998 3.24561 10.3998C3.19284 10.3998 3.14016 10.3822 3.10498 10.3559C3.06101 10.3295 3.03468 10.2856 3.0083 10.2416C2.98193 10.1977 2.97318 10.1362 2.98193 10.0922L3.11377 8.71036C1.99617 7.87436 1.6001 6.58068 1.6001 5.63028C1.60017 3.40394 3.58053 1.60001 6.00049 1.60001ZM3.73877 4.99649C3.36927 4.99649 3.06998 5.29597 3.06982 5.66544C3.0699 6.03497 3.36922 6.33438 3.73877 6.33438C4.10821 6.33425 4.40764 6.03489 4.40771 5.66544C4.40756 5.29605 4.10816 4.99662 3.73877 4.99649ZM5.9917 4.99649C5.6222 4.99649 5.32291 5.29597 5.32275 5.66544C5.32283 6.03497 5.62215 6.33438 5.9917 6.33438C6.36105 6.33415 6.66057 6.03483 6.66064 5.66544C6.66049 5.29611 6.36101 4.99672 5.9917 4.99649ZM8.24463 4.99649C7.87513 4.99649 7.57584 5.29597 7.57568 5.66544C7.57576 6.03497 7.87508 6.33438 8.24463 6.33438C8.61396 6.33412 8.91252 6.03481 8.9126 5.66544C8.91244 5.29613 8.61391 4.99675 8.24463 4.99649Z" fill="#B7B7B7"/>
</svg>
